<svg id="visual" viewBox="0 0 900 600" width="900" height="600" xmlns="http://www.w3.org/2000/svg" xmlns:xlink="http://www.w3.org/1999/xlink" version="1.1"><rect x="0" y="0" width="900" height="600" fill="#001220"></rect><defs><linearGradient id="grad1_0" x1="33.3%" y1="0%" x2="100%" y2="100%"><stop offset="20%" stop-color="#fbae3c" stop-opacity="1"></stop><stop offset="80%" stop-color="#fbae3c" stop-opacity="1"></stop></linearGradient></defs><defs><linearGradient id="grad1_1" x1="33.3%" y1="0%" x2="100%" y2="100%"><stop offset="20%" stop-color="#fbae3c" stop-opacity="1"></stop><stop offset="80%" stop-color="#eb7458" stop-opacity="1"></stop></linearGradient></defs><defs><linearGradient id="grad1_2" x1="33.3%" y1="0%" x2="100%" y2="100%"><stop offset="20%" stop-color="#b84e6c" stop-opacity="1"></stop><stop offset="80%" stop-color="#eb7458" stop-opacity="1"></stop></linearGradient></defs><defs><linearGradient id="grad1_3" x1="33.3%" y1="0%" x2="100%" y2="100%"><stop offset="20%" stop-color="#b84e6c" stop-opacity="1"></stop><stop offset="80%" stop-color="#713c69" stop-opacity="1"></stop></linearGradient></defs><defs><linearGradient id="grad1_4" x1="33.3%" y1="0%" x2="100%" y2="100%"><stop offset="20%" stop-color="#2d2b4c" stop-opacity="1"></stop><stop offset="80%" stop-color="#713c69" stop-opacity="1"></stop></linearGradient></defs><defs><linearGradient id="grad1_5" x1="33.3%" y1="0%" x2="100%" y2="100%"><stop offset="20%" stop-color="#2d2b4c" stop-opacity="1"></stop><stop offset="80%" stop-color="#001220" stop-opacity="1"></stop></linearGradient></defs><defs><linearGradient id="grad2_0" x1="0%" y1="0%" x2="66.7%" y2="100%"><stop offset="20%" stop-color="#fbae3c" stop-opacity="1"></stop><stop offset="80%" stop-color="#fbae3c" stop-opacity="1"></stop></linearGradient></defs><defs><linearGradient id="grad2_1" x1="0%" y1="0%" x2="66.7%" y2="100%"><stop offset="20%" stop-color="#eb7458" stop-opacity="1"></stop><stop offset="80%" stop-color="#fbae3c" stop-opacity="1"></stop></linearGradient></defs><defs><linearGradient id="grad2_2" x1="0%" y1="0%" x2="66.7%" y2="100%"><stop offset="20%" stop-color="#eb7458" stop-opacity="1"></stop><stop offset="80%" stop-color="#b84e6c" stop-opacity="1"></stop></linearGradient></defs><defs><linearGradient id="grad2_3" x1="0%" y1="0%" x2="66.7%" y2="100%"><stop offset="20%" stop-color="#713c69" stop-opacity="1"></stop><stop offset="80%" stop-color="#b84e6c" stop-opacity="1"></stop></linearGradient></defs><defs><linearGradient id="grad2_4" x1="0%" y1="0%" x2="66.7%" y2="100%"><stop offset="20%" stop-color="#713c69" stop-opacity="1"></stop><stop offset="80%" stop-color="#2d2b4c" stop-opacity="1"></stop></linearGradient></defs><defs><linearGradient id="grad2_5" x1="0%" y1="0%" x2="66.7%" y2="100%"><stop offset="20%" stop-color="#001220" stop-opacity="1"></stop><stop offset="80%" stop-color="#2d2b4c" stop-opacity="1"></stop></linearGradient></defs><g transform="translate(900, 0)"><path d="M0 324.5C-59.7 317.7 -119.4 310.9 -162.2 281C-205.1 251.1 -231.2 198.2 -255.5 147.5C-279.7 96.8 -302.1 48.4 -324.5 0L0 0Z" fill="#131f37"></path><path d="M0 270.4C-49.7 264.8 -99.5 259.1 -135.2 234.2C-170.9 209.3 -192.7 165.2 -212.9 122.9C-233.1 80.7 -251.8 40.3 -270.4 0L0 0Z" fill="#4d345e"></path><path d="M0 216.3C-39.8 211.8 -79.6 207.3 -108.2 187.3C-136.8 167.4 -154.2 132.1 -170.3 98.3C-186.5 64.5 -201.4 32.3 -216.3 0L0 0Z" fill="#96446e"></path><path d="M0 162.2C-29.8 158.9 -59.7 155.5 -81.1 140.5C-102.6 125.6 -115.6 99.1 -127.7 73.8C-139.9 48.4 -151.1 24.2 -162.2 0L0 0Z" fill="#d55e64"></path><path d="M0 108.2C-19.9 105.9 -39.8 103.6 -54.1 93.7C-68.4 83.7 -77.1 66.1 -85.2 49.2C-93.2 32.3 -100.7 16.1 -108.2 0L0 0Z" fill="#f88f4a"></path><path d="M0 54.1C-9.9 53 -19.9 51.8 -27 46.8C-34.2 41.9 -38.5 33 -42.6 24.6C-46.6 16.1 -50.4 8.1 -54.1 0L0 0Z" fill="#fbae3c"></path></g><g transform="translate(0, 600)"><path d="M0 -324.5C54.8 -313.2 109.6 -301.9 159.5 -276.3C209.4 -250.6 254.3 -210.7 281 -162.2C307.7 -113.8 316.1 -56.9 324.5 0L0 0Z" fill="#131f37"></path><path d="M0 -270.4C45.7 -261 91.3 -251.6 132.9 -230.2C174.5 -208.9 212 -175.6 234.2 -135.2C256.4 -94.8 263.4 -47.4 270.4 0L0 0Z" fill="#4d345e"></path><path d="M0 -216.3C36.5 -208.8 73.1 -201.3 106.3 -184.2C139.6 -167.1 169.6 -140.5 187.3 -108.2C205.1 -75.9 210.7 -37.9 216.3 0L0 0Z" fill="#96446e"></path><path d="M0 -162.2C27.4 -156.6 54.8 -150.9 79.7 -138.1C104.7 -125.3 127.2 -105.3 140.5 -81.1C153.9 -56.9 158.1 -28.5 162.2 0L0 0Z" fill="#d55e64"></path><path d="M0 -108.2C18.3 -104.4 36.5 -100.6 53.2 -92.1C69.8 -83.5 84.8 -70.2 93.7 -54.1C102.6 -37.9 105.4 -19 108.2 0L0 0Z" fill="#f88f4a"></path><path d="M0 -54.1C9.1 -52.2 18.3 -50.3 26.6 -46C34.9 -41.8 42.4 -35.1 46.8 -27C51.3 -19 52.7 -9.5 54.1 0L0 0Z" fill="#fbae3c"></path></g></svg>