<svg id="visual" viewBox="0 0 900 600" width="900" height="600" xmlns="http://www.w3.org/2000/svg" xmlns:xlink="http://www.w3.org/1999/xlink" version="1.1"><path d="M0 217L82 85L164 73L245 187L327 133L409 187L491 139L573 187L655 115L736 115L818 193L900 187L900 0L818 0L736 0L655 0L573 0L491 0L409 0L327 0L245 0L164 0L82 0L0 0Z" fill="#00cc8e"></path><path d="M0 313L82 235L164 205L245 307L327 223L409 247L491 259L573 247L655 181L736 193L818 277L900 283L900 185L818 191L736 113L655 113L573 185L491 137L409 185L327 131L245 185L164 71L82 83L0 215Z" fill="#00b98a"></path><path d="M0 409L82 313L164 325L245 367L327 343L409 307L491 307L573 367L655 289L736 319L818 373L900 385L900 281L818 275L736 191L655 179L573 245L491 257L409 245L327 221L245 305L164 203L82 233L0 311Z" fill="#00a784"></path><path d="M0 511L82 565L164 505L245 517L327 541L409 511L491 547L573 511L655 559L736 565L818 547L900 547L900 383L818 371L736 317L655 287L573 365L491 305L409 305L327 341L245 365L164 323L82 311L0 407Z" fill="#00957c"></path><path d="M0 601L82 601L164 601L245 601L327 601L409 601L491 601L573 601L655 601L736 601L818 601L900 601L900 545L818 545L736 563L655 557L573 509L491 545L409 509L327 539L245 515L164 503L82 563L0 509Z" fill="#038373"></path></svg>